<svg xmlns="http://www.w3.org/2000/svg" width="30" height="30" viewBox="0 0 30 30">
  <g id="Group_57909" data-name="Group 57909" transform="translate(-1401 -4705)">
    <rect id="Rectangle_69" data-name="Rectangle 69" width="30" height="30" rx="4" transform="translate(1401 4705)" fill="#fff"/>
    <g id="_004-linkedin-logo" data-name="004-linkedin-logo" transform="translate(1408 4713)">
      <path id="LinkedIn" d="M15.589,18.691v5.763H12.248V19.077c0-1.351-.483-2.273-1.693-2.273a1.828,1.828,0,0,0-1.714,1.222,2.286,2.286,0,0,0-.111.815v5.613H5.388s.045-9.107,0-10.051H8.73v1.425l-.022.032H8.73v-.032a3.318,3.318,0,0,1,3.012-1.661C13.94,14.167,15.589,15.6,15.589,18.691ZM1.891,9.558a1.742,1.742,0,1,0-.044,3.474h.022a1.742,1.742,0,1,0,.022-3.474ZM.2,24.454H3.54V14.4H.2Z" transform="translate(0 -9.558)" fill="#1d4b9b"/>
    </g>
  </g>
</svg>
