<svg id="instagram_1_" data-name="instagram (1)" xmlns="http://www.w3.org/2000/svg" xmlns:xlink="http://www.w3.org/1999/xlink" width="17.5" height="17.5" viewBox="0 0 17.5 17.5">
  <defs>
    <linearGradient id="linear-gradient" x1="0.5" x2="0.5" y2="1" gradientUnits="objectBoundingBox">
      <stop offset="0" stop-color="#f5561a"/>
      <stop offset="1" stop-color="#c10883"/>
    </linearGradient>
  </defs>
  <path id="Path_74" data-name="Path 74" d="M12.287,0H5.213A5.219,5.219,0,0,0,0,5.213v7.073A5.219,5.219,0,0,0,5.213,17.5h7.073A5.219,5.219,0,0,0,17.5,12.287V5.213A5.219,5.219,0,0,0,12.287,0ZM15.74,12.287a3.453,3.453,0,0,1-3.453,3.453H5.213a3.453,3.453,0,0,1-3.453-3.453V5.213A3.453,3.453,0,0,1,5.213,1.76h7.073A3.453,3.453,0,0,1,15.74,5.213v7.073Z" fill="url(#linear-gradient)"/>
  <path id="Path_75" data-name="Path 75" d="M137.526,133a4.526,4.526,0,1,0,4.526,4.526A4.531,4.531,0,0,0,137.526,133Zm0,7.292a2.766,2.766,0,1,1,2.766-2.766A2.766,2.766,0,0,1,137.526,140.292Z" transform="translate(-128.776 -128.776)" fill="url(#linear-gradient)"/>
  <ellipse id="Ellipse_5" data-name="Ellipse 5" cx="1.085" cy="1.085" rx="1.085" ry="1.085" transform="translate(12.2 3.173)" fill="url(#linear-gradient)"/>
</svg>
