<svg xmlns="http://www.w3.org/2000/svg" width="81" height="81" viewBox="0 0 81 81">
  <path id="Path_1" data-name="Path 1" d="M1178.481,635.833h1.012c.114.014.228.037.342.039a40.5,40.5,0,0,1,37.567,27.667,39.65,39.65,0,0,1,1.97,10.147c.033.545.077,1.09.116,1.635v2.025c-.021.208-.055.416-.062.624a40.155,40.155,0,0,1-6.508,20.469,40.24,40.24,0,0,1-13.769,13.021,39.764,39.764,0,0,1-17.2,5.259c-.46.033-.921.076-1.381.115h-3.164c-.471-.04-.942-.086-1.413-.117a38.918,38.918,0,0,1-8.719-1.6,40.394,40.394,0,0,1-28.739-38,2.765,2.765,0,0,0-.047-.34v-.823a2.73,2.73,0,0,0,.047-.339,40.148,40.148,0,0,1,4.55-17.972,40.6,40.6,0,0,1,17.408-17.318,39.867,39.867,0,0,1,15.847-4.374c.713-.045,1.427-.079,2.141-.118m.87,33.613.071-.114c-.764-.734-1.5-1.505-2.3-2.193a20.953,20.953,0,0,0-6.868-3.932,21.173,21.173,0,0,0-6.727-1.124,27.249,27.249,0,0,0-3.469.167,15.4,15.4,0,0,0-5.8,2.042,19.047,19.047,0,0,0-4.037,3.177,8.345,8.345,0,0,0-1.629,2.725,7.311,7.311,0,0,0,.2,6.814,6.4,6.4,0,0,0,4.646,3.417c.478.078.95.2,1.4.29-.417.755-.844,1.447-1.195,2.176a11.3,11.3,0,0,0-.93,7.835,6.981,6.981,0,0,0,7.348,5.659,14.793,14.793,0,0,0,2.975-.539,8.053,8.053,0,0,0,4.293-2.515c.511-.589,1.057-1.148,1.586-1.721a2.938,2.938,0,0,0,.358-.4c1.01-1.6,2.021-3.21,3.016-4.824q3.762-6.106,7.509-12.221c.384-.626.739-1.27,1.139-1.961a20.39,20.39,0,0,0-6.407-.452,13.114,13.114,0,0,0-6.063,1.981.746.746,0,0,1,.025-.139c.032-.066.068-.13.107-.192a6.93,6.93,0,0,1,2.335-2.271,12.689,12.689,0,0,1,6.139-1.682c.755-.039,1.514-.006,2.271-.006m5.487,1.84c.288.154.521.274.751.4a44.7,44.7,0,0,1,8.851,6.591,59.657,59.657,0,0,1,7.269,8.158.543.543,0,0,0,.47.241,7.937,7.937,0,0,0,5.146-1.7,6.334,6.334,0,0,0,2.353-2.906,6.49,6.49,0,0,0-.326-4.892,17.861,17.861,0,0,0-3.589-5.28c-.455-.489-.949-.943-1.481-1.468.509-.2.94-.39,1.388-.528a2.293,2.293,0,0,0,1.353-1.164,3.583,3.583,0,0,0,.1-3.261,10.26,10.26,0,0,0-3.155-3.968,9.818,9.818,0,0,0-11.672-.532,18.663,18.663,0,0,0-6.17,7.308,1.194,1.194,0,0,0-.057.216,14.865,14.865,0,0,1,7.765-.606,73.669,73.669,0,0,0-8.993,3.394m-9.856-19.589c-.715-.27-1.464-.583-2.232-.839a14.844,14.844,0,0,0-6.988-.858,7.619,7.619,0,0,0-5.168,2.933,6.329,6.329,0,0,0-1.415,4.066,8.779,8.779,0,0,0,.7,3.125c.343.831.143.673.986.621a23.6,23.6,0,0,1,5.041.248,25.635,25.635,0,0,1,6.921,2.1,27.76,27.76,0,0,1,7.874,5.362c.247.242.448.235.578-.086a3.212,3.212,0,0,0,.243-1,23.308,23.308,0,0,0-.358-4.649c-.065-.451-.147-.9-.221-1.351l.1-.033c1.4,1.541,1.762,3.557,2.385,5.479.1-.056.179-.1.255-.149a13.931,13.931,0,0,0,2.608-2.189,9.161,9.161,0,0,0,2.4-8.314,13.2,13.2,0,0,0-1.721-4.282,10.131,10.131,0,0,0-4.757-4.142,4.563,4.563,0,0,0-2.474-.36,4.957,4.957,0,0,0-3.374,2.144c-.505.68-.908,1.436-1.37,2.18m9.574,21.948c-.243.372-.4.646-.591.895a.647.647,0,0,0-.076.722,44.269,44.269,0,0,1,2.167,6.652,20.868,20.868,0,0,1,.442,8.044,36.41,36.41,0,0,1-2.614,8.971,40.017,40.017,0,0,1-6.123,9.875c-.4.477-.824.937-1.237,1.405a.144.144,0,0,0,.127-.022,36.3,36.3,0,0,0,7.835-6.744,21.7,21.7,0,0,0,5.41-12.417,22,22,0,0,0-.374-6.191,27.093,27.093,0,0,0-3.029-8.065c-.588-1.043-1.26-2.038-1.938-3.125" transform="translate(-1138.487 -635.833)" fill="#101a3b"/>
</svg>
