<svg xmlns="http://www.w3.org/2000/svg" width="18.471" height="26.862" viewBox="0 0 18.471 26.862">
  <g id="pin" transform="translate(-79.968 0)">
    <path id="Path_932" data-name="Path 932" d="M97.156,4.6A9.116,9.116,0,0,0,89.41,0c-.137,0-.276,0-.413,0a9.116,9.116,0,0,0-7.746,4.6,9.352,9.352,0,0,0-.122,9.24L87.79,26.032l.009.016a1.619,1.619,0,0,0,2.809,0l.009-.016L97.278,13.84a9.352,9.352,0,0,0-.122-9.24ZM89.2,12.171a3.778,3.778,0,1,1,3.778-3.778A3.782,3.782,0,0,1,89.2,12.171Z" transform="translate(0 0)" fill="#101a3b"/>
  </g>
</svg>
