<svg xmlns="http://www.w3.org/2000/svg" width="30" height="30" viewBox="0 0 30 30">
  <g id="Group_57906" data-name="Group 57906" transform="translate(-1361 -4705)">
    <rect id="Rectangle_70" data-name="Rectangle 70" width="30" height="30" rx="4" transform="translate(1361 4705)" fill="#fff"/>
    <g id="_001-twitter-logo-silhouette" data-name="001-twitter-logo-silhouette" transform="translate(1367 4712)">
      <g id="Group_25" data-name="Group 25" transform="translate(0 0)">
        <path id="Path_69" data-name="Path 69" d="M18.505,59.219a7.58,7.58,0,0,1-2.18.6,3.812,3.812,0,0,0,1.669-2.1,7.653,7.653,0,0,1-2.412.922A3.8,3.8,0,0,0,9.114,62.1,10.777,10.777,0,0,1,1.29,58.135,3.8,3.8,0,0,0,2.465,63.2a3.8,3.8,0,0,1-1.719-.476v.047A3.8,3.8,0,0,0,3.79,66.495a3.845,3.845,0,0,1-1,.133,3.643,3.643,0,0,1-.715-.071,3.8,3.8,0,0,0,3.545,2.636A7.616,7.616,0,0,1,.906,70.816,8.067,8.067,0,0,1,0,70.764a10.73,10.73,0,0,0,5.818,1.708,10.725,10.725,0,0,0,10.8-10.8l-.013-.491A7.58,7.58,0,0,0,18.505,59.219Z" transform="translate(-0.001 -57.441)" fill="#27d9ee"/>
      </g>
    </g>
  </g>
</svg>
