<svg xmlns="http://www.w3.org/2000/svg" width="48" height="48" viewBox="0 0 48 48">
  <path id="Path_1" data-name="Path 1" d="M1162.187,635.833h.6c.068.008.135.022.2.023a24,24,0,0,1,22.262,16.395,23.493,23.493,0,0,1,1.167,6.013c.02.323.046.646.069.969v1.2c-.013.123-.032.246-.037.37a23.8,23.8,0,0,1-3.857,12.129,23.846,23.846,0,0,1-8.16,7.716,23.564,23.564,0,0,1-10.191,3.116c-.273.02-.546.045-.818.068h-1.875c-.279-.023-.558-.051-.837-.069a23.063,23.063,0,0,1-5.167-.951,23.938,23.938,0,0,1-17.03-22.516,1.636,1.636,0,0,0-.028-.2v-.487a1.618,1.618,0,0,0,.028-.2,23.792,23.792,0,0,1,2.7-10.65,24.061,24.061,0,0,1,10.316-10.262,23.625,23.625,0,0,1,9.391-2.592c.423-.027.846-.047,1.269-.07m.515,19.919.042-.067c-.453-.435-.887-.892-1.363-1.3a12.417,12.417,0,0,0-4.07-2.33,12.55,12.55,0,0,0-3.987-.666,16.155,16.155,0,0,0-2.056.1,9.122,9.122,0,0,0-3.436,1.21,11.288,11.288,0,0,0-2.392,1.883,4.946,4.946,0,0,0-.965,1.615,4.333,4.333,0,0,0,.12,4.038,3.792,3.792,0,0,0,2.753,2.025c.283.046.563.116.831.172-.247.447-.5.857-.708,1.289a6.7,6.7,0,0,0-.551,4.643,4.137,4.137,0,0,0,4.354,3.353,8.766,8.766,0,0,0,1.763-.319,4.772,4.772,0,0,0,2.544-1.49c.3-.349.626-.68.94-1.02a1.736,1.736,0,0,0,.212-.234c.6-.951,1.2-1.9,1.787-2.859q2.229-3.618,4.45-7.242c.228-.371.438-.753.675-1.162a12.085,12.085,0,0,0-3.8-.268,7.772,7.772,0,0,0-3.593,1.174.439.439,0,0,1,.015-.082c.019-.039.041-.077.063-.114a4.107,4.107,0,0,1,1.384-1.346,7.52,7.52,0,0,1,3.638-1c.448-.023.9,0,1.346,0m3.251,1.09c.171.091.309.162.445.238a26.489,26.489,0,0,1,5.245,3.906,35.351,35.351,0,0,1,4.307,4.835.322.322,0,0,0,.278.143,4.7,4.7,0,0,0,3.049-1.01,3.753,3.753,0,0,0,1.394-1.722,3.846,3.846,0,0,0-.193-2.9,10.582,10.582,0,0,0-2.127-3.129c-.27-.29-.562-.559-.878-.87.3-.116.557-.231.823-.313a1.358,1.358,0,0,0,.8-.69,2.123,2.123,0,0,0,.059-1.932,6.08,6.08,0,0,0-1.87-2.351,5.818,5.818,0,0,0-6.917-.316,11.06,11.06,0,0,0-3.656,4.331.708.708,0,0,0-.034.128,8.809,8.809,0,0,1,4.6-.359,43.659,43.659,0,0,0-5.329,2.011m-5.841-11.608c-.424-.16-.868-.345-1.323-.5a8.8,8.8,0,0,0-4.141-.508,4.515,4.515,0,0,0-3.062,1.738,3.75,3.75,0,0,0-.839,2.409,5.2,5.2,0,0,0,.413,1.852c.2.492.085.4.584.368a13.987,13.987,0,0,1,2.987.147,15.193,15.193,0,0,1,4.1,1.242,16.452,16.452,0,0,1,4.666,3.177c.146.144.266.139.342-.051a1.9,1.9,0,0,0,.144-.593,13.815,13.815,0,0,0-.212-2.755c-.039-.268-.087-.534-.131-.8l.057-.02a8.217,8.217,0,0,1,1.413,3.247c.058-.033.106-.058.151-.088a8.256,8.256,0,0,0,1.545-1.3,5.429,5.429,0,0,0,1.419-4.927,7.821,7.821,0,0,0-1.02-2.538,6,6,0,0,0-2.819-2.455,2.7,2.7,0,0,0-1.466-.214,2.938,2.938,0,0,0-2,1.27c-.3.4-.538.851-.812,1.292m5.674,13.006c-.144.22-.237.383-.35.53a.383.383,0,0,0-.045.428,26.234,26.234,0,0,1,1.284,3.942,12.366,12.366,0,0,1,.262,4.767,21.579,21.579,0,0,1-1.549,5.316,23.715,23.715,0,0,1-3.629,5.852c-.239.282-.488.555-.733.833a.085.085,0,0,0,.075-.013,21.509,21.509,0,0,0,4.643-4,12.859,12.859,0,0,0,3.206-7.358,13.035,13.035,0,0,0-.222-3.668,16.055,16.055,0,0,0-1.8-4.779c-.349-.618-.747-1.208-1.149-1.852" transform="translate(-1138.487 -635.833)" fill="#101a3b"/>
</svg>
